<svg id="레이어_1" data-name="레이어 1" xmlns="http://www.w3.org/2000/svg" viewBox="0 0 24 24"><defs><style>.cls-1{fill:#231815;}.cls-2{fill:none;stroke:currentColor;stroke-linecap:round;stroke-miterlimit:10;stroke-width:2px;}</style></defs><title>temperature</title><path class="cls-1" d="M11.5,3.4a1.8,1.8,0,0,1,1.9,1.9v8.1a3.9,3.9,0,1,1-3.8,0V5.3a1.8,1.8,0,0,1,1.9-1.9m0-2A3.8,3.8,0,0,0,7.6,5.3v7.1a6.1,6.1,0,0,0-2,4.4,5.9,5.9,0,0,0,11.8,0,6.1,6.1,0,0,0-2-4.4V5.3a3.8,3.8,0,0,0-3.9-3.9Z"/><circle class="cls-1" cx="11.5" cy="16.8" r="2.8"/><line class="cls-2" x1="11.5" y1="5.2" x2="11.5" y2="16.6"/><line class="cls-2" x1="18" y1="3.9" x2="21" y2="3.9"/><line class="cls-2" x1="18" y1="7.6" x2="21" y2="7.6"/><line class="cls-2" x1="18" y1="11.3" x2="21" y2="11.3"/></svg>