<svg id="레이어_1" data-name="레이어 1" xmlns="http://www.w3.org/2000/svg" viewBox="0 0 16.4 21.3"><defs><style>.cls-1{fill:currentColor;}.cls-2{fill:currentColor;stroke:currentColor;stroke-linecap:round;stroke-miterlimit:10;stroke-width:2px;}</style></defs><title>temperature</title><path class="cls-1" d="M11.5,3.4a1.8,1.8,0,0,1,1.9,1.9v8.1a3.9,3.9,0,1,1-3.8,0V5.3a1.8,1.8,0,0,1,1.9-1.9m0-2A3.8,3.8,0,0,0,7.6,5.3v7.1a6.1,6.1,0,0,0-2,4.4,5.9,5.9,0,0,0,11.8,0,6.1,6.1,0,0,0-2-4.4V5.3a3.8,3.8,0,0,0-3.9-3.9Z" transform="translate(-5.6 -1.4)"/><circle class="cls-1" cx="5.9" cy="15.4" r="2.8"/><line class="cls-2" x1="5.9" y1="3.8" x2="5.9" y2="15.2"/><line class="cls-2" x1="12.4" y1="2.5" x2="15.4" y2="2.5"/><line class="cls-2" x1="12.4" y1="6.2" x2="15.4" y2="6.2"/><line class="cls-2" x1="12.4" y1="9.9" x2="15.4" y2="9.9"/></svg>